<svg width="20" height="20" viewBox="0 0 20 20" fill="none" xmlns="http://www.w3.org/2000/svg">
<path d="M10 20C15.5228 20 20 15.5228 20 10C20 4.47715 15.5228 0 10 0C4.47715 0 0 4.47715 0 10C0 15.5228 4.47715 20 10 20Z" fill="#FEF3F2"/>
<path d="M9.99991 18.2195C14.5395 18.2195 18.2195 14.5395 18.2195 9.99991C18.2195 5.46033 14.5395 1.78027 9.99991 1.78027C5.46033 1.78027 1.78027 5.46033 1.78027 9.99991C1.78027 14.5395 5.46033 18.2195 9.99991 18.2195Z" fill="#F24949"/>
<path d="M10.9722 9.97484L13.7253 7.22166C13.9958 6.9512 13.9958 6.51286 13.7253 6.2424C13.4549 5.97194 13.0165 5.97194 12.7461 6.2424L9.9929 8.99578L7.23972 6.2424C6.96926 5.97194 6.53092 5.97194 6.26046 6.2424C5.99 6.51286 5.99 6.9512 6.26046 7.22166L9.01364 9.97484L6.26066 12.7282C5.9902 12.9987 5.9902 13.437 6.26066 13.7075C6.3959 13.8427 6.57305 13.9102 6.75019 13.9102C6.92734 13.9102 7.1047 13.8427 7.23972 13.7075L9.9929 10.9543L12.7461 13.7075C12.8813 13.8427 13.0585 13.9102 13.2356 13.9102C13.4128 13.9102 13.5901 13.8427 13.7251 13.7075C13.9956 13.437 13.9956 12.9987 13.7251 12.7282L10.9722 9.97484Z" fill="white"/>
</svg>
