<svg width="20" height="20" viewBox="0 0 20 20" fill="none" xmlns="http://www.w3.org/2000/svg">
<g clip-path="url(#clip0_25_9508)">
<path d="M10 20C15.5228 20 20 15.5228 20 10C20 4.47715 15.5228 0 10 0C4.47715 0 0 4.47715 0 10C0 15.5228 4.47715 20 10 20Z" fill="#E9E9F7"/>
<path d="M9.99991 18.2195C14.5395 18.2195 18.2195 14.5395 18.2195 9.99991C18.2195 5.46033 14.5395 1.78027 9.99991 1.78027C5.46033 1.78027 1.78027 5.46033 1.78027 9.99991C1.78027 14.5395 5.46033 18.2195 9.99991 18.2195Z" fill="#5123CE"/>
<path d="M10.8145 12.0479H9.07129C9.07585 11.6377 9.10775 11.2845 9.16699 10.9883C9.23079 10.6875 9.33789 10.4163 9.48828 10.1748C9.64323 9.93327 9.84831 9.69401 10.1035 9.45703C10.3177 9.26562 10.5046 9.08333 10.6641 8.91016C10.8236 8.73698 10.9489 8.55924 11.04 8.37695C11.1312 8.1901 11.1768 7.98275 11.1768 7.75488C11.1768 7.49056 11.1357 7.27181 11.0537 7.09863C10.9762 6.9209 10.8577 6.78646 10.6982 6.69531C10.5433 6.60417 10.3473 6.55859 10.1104 6.55859C9.91439 6.55859 9.7321 6.60189 9.56348 6.68848C9.39486 6.77051 9.25586 6.89811 9.14648 7.07129C9.04167 7.24447 8.98698 7.47233 8.98242 7.75488H7C7.01367 7.13053 7.15723 6.61556 7.43066 6.20996C7.70866 5.7998 8.08008 5.49674 8.54492 5.30078C9.00977 5.10026 9.53158 5 10.1104 5C10.7484 5 11.2952 5.10482 11.751 5.31445C12.2067 5.51953 12.5553 5.82259 12.7969 6.22363C13.0384 6.62012 13.1592 7.10319 13.1592 7.67285C13.1592 8.06934 13.0817 8.42253 12.9268 8.73242C12.7718 9.03776 12.569 9.32259 12.3184 9.58691C12.0677 9.85124 11.792 10.1247 11.4912 10.4072C11.2314 10.6396 11.0537 10.8835 10.958 11.1387C10.8669 11.3939 10.819 11.6969 10.8145 12.0479ZM8.86621 14.1602C8.86621 13.8685 8.96647 13.627 9.16699 13.4355C9.36751 13.2396 9.63639 13.1416 9.97363 13.1416C10.3063 13.1416 10.5729 13.2396 10.7734 13.4355C10.9785 13.627 11.0811 13.8685 11.0811 14.1602C11.0811 14.4427 10.9785 14.682 10.7734 14.8779C10.5729 15.0739 10.3063 15.1719 9.97363 15.1719C9.63639 15.1719 9.36751 15.0739 9.16699 14.8779C8.96647 14.682 8.86621 14.4427 8.86621 14.1602Z" fill="white"/>
</g>
<defs>
<clipPath id="clip0_25_9508">
<rect width="20" height="20" rx="10" fill="white"/>
</clipPath>
</defs>
</svg>
