<svg width="50" height="50" viewBox="0 0 50 50" fill="none" xmlns="http://www.w3.org/2000/svg">
<path fill-rule="evenodd" clip-rule="evenodd" d="M37.75 33C37.75 33.6904 37.1904 34.25 36.5 34.25L13.5 34.25C12.8096 34.25 12.25 33.6904 12.25 33C12.25 32.3096 12.8096 31.75 13.5 31.75L36.5 31.75C37.1904 31.75 37.75 32.3096 37.75 33Z" fill="white"/>
<path fill-rule="evenodd" clip-rule="evenodd" d="M37.75 25C37.75 25.6904 37.1904 26.25 36.5 26.25L13.5 26.25C12.8096 26.25 12.25 25.6904 12.25 25C12.25 24.3096 12.8096 23.75 13.5 23.75L36.5 23.75C37.1904 23.75 37.75 24.3096 37.75 25Z" fill="white"/>
<path fill-rule="evenodd" clip-rule="evenodd" d="M37.75 17C37.75 17.6904 37.1904 18.25 36.5 18.25L13.5 18.25C12.8096 18.25 12.25 17.6904 12.25 17C12.25 16.3096 12.8096 15.75 13.5 15.75L36.5 15.75C37.1904 15.75 37.75 16.3096 37.75 17Z" fill="white"/>
</svg>
