<svg width="130" height="29" viewBox="0 0 130 29" fill="none" xmlns="http://www.w3.org/2000/svg">
<path d="M11.1487 22.6501C8.92705 22.6501 6.9759 22.1782 5.29422 21.2323C3.61255 20.2875 2.30964 18.9632 1.38598 17.26C0.461829 15.5578 0 13.5741 0 11.31C0 9.60726 0.264538 8.05939 0.794109 6.66784C1.32368 5.27679 2.0812 4.08213 3.06716 3.08484C4.05312 2.08805 5.23143 1.32476 6.60159 0.794954C7.97175 0.265147 9.48678 0.000488281 11.1482 0.000488281C13.3693 0.000488281 15.3155 0.467969 16.9873 1.40243C18.6581 2.33689 19.9615 3.65076 20.8955 5.34357C21.8296 7.03638 22.2969 9.02501 22.2969 11.3095C22.2969 13.0127 22.0323 14.56 21.5028 15.9516C20.9732 17.3431 20.2152 18.5427 19.2297 19.5499C18.2432 20.5576 17.0654 21.3258 15.6953 21.8551C14.3246 22.3855 12.8091 22.6501 11.1487 22.6501ZM11.1487 17.8522C12.2489 17.8522 13.1829 17.5929 13.9513 17.0735C14.7192 16.5546 15.3106 15.8066 15.7264 14.8301C16.1413 13.8541 16.3494 12.6802 16.3494 11.3095C16.3494 9.25306 15.8926 7.65424 14.9793 6.51152C14.0655 5.3693 12.7888 4.79794 11.1492 4.79794C10.0693 4.79794 9.14066 5.0527 8.36188 5.56124C7.58359 6.07027 6.98628 6.80734 6.57142 7.77297C6.15608 8.73859 5.9484 9.91792 5.9484 11.309C5.9484 13.3654 6.40479 14.9696 7.31856 16.1223C8.23134 17.2759 9.50805 17.8522 11.1487 17.8522ZM20.5529 25.0805C20.9267 25.7038 21.0612 26.2692 20.9579 26.7782C20.8535 27.2868 20.5999 27.7176 20.1949 28.0713C19.7899 28.4241 19.3123 28.6526 18.7624 28.757C18.2121 28.8609 17.6672 28.8084 17.1277 28.6012C16.5878 28.3934 16.1413 27.9986 15.7887 27.4174L13.484 23.7097C13.2556 23.3357 12.9545 23.0656 12.5811 22.8994C12.2073 22.7327 11.7193 22.6501 11.1175 22.6501L15.3838 21.0612C16.3178 21.0612 17.107 21.2323 17.7503 21.5752C18.3936 21.918 18.9439 22.4735 19.4008 23.2418L20.5529 25.0805Z" fill="#0C0A28"/>
<path d="M35.4066 22.6503C33.8075 22.6503 32.3963 22.4479 31.1715 22.0428C29.9463 21.6377 28.9138 21.0302 28.0732 20.2204C27.2327 19.4106 26.5987 18.398 26.1735 17.183C25.7478 15.9681 25.5352 14.5612 25.5352 12.9614V2.96085C25.5352 2.00561 25.7844 1.28387 26.2823 0.795612C26.7807 0.307853 27.4863 0.0634766 28.4001 0.0634766C29.3341 0.0634766 30.0452 0.307853 30.5332 0.795612C31.0207 1.28387 31.265 2.00561 31.265 2.96085V13.0237C31.265 14.6235 31.6176 15.8276 32.3236 16.6379C33.0292 17.4482 34.0567 17.8528 35.4066 17.8528C36.7348 17.8528 37.7524 17.4477 38.4585 16.6379C39.1641 15.8281 39.5171 14.6235 39.5171 13.0237V2.96085C39.5171 2.00561 39.7609 1.28387 40.2489 0.795612C40.7365 0.307853 41.4371 0.0634766 42.3509 0.0634766C43.2642 0.0634766 43.9594 0.307853 44.4375 0.795612C44.9147 1.28387 45.154 2.00561 45.154 2.96085V12.9614C45.154 15.1009 44.7851 16.8921 44.0484 18.3356C43.3111 19.7796 42.2159 20.859 40.7632 21.5758C39.3094 22.2921 37.5239 22.6503 35.4066 22.6503Z" fill="#0C0A28"/>
<path d="M59.5725 22.6501C57.3509 22.6501 55.3997 22.1782 53.7181 21.2323C52.0364 20.2875 50.7335 18.9632 49.8098 17.26C48.8857 15.5573 48.4238 13.5736 48.4238 11.3095C48.4238 9.60677 48.6884 8.0589 49.2179 6.66736C49.7475 5.2763 50.505 4.08165 51.491 3.08436C52.4769 2.08757 53.6553 1.32427 55.0254 0.794466C56.3956 0.264659 57.9106 0 59.572 0C61.7931 0 63.7394 0.467481 65.4111 1.40194C67.0819 2.3364 68.3848 3.65028 69.3194 5.34309C70.2534 7.0359 70.7207 9.02453 70.7207 11.309C70.7207 13.0122 70.4562 14.5596 69.9266 15.9511C69.397 17.3426 68.639 18.5423 67.6535 19.5494C66.6671 20.5571 65.4893 21.3253 64.1191 21.8547C62.7489 22.3855 61.2329 22.6501 59.5725 22.6501ZM59.5725 17.8522C60.6727 17.8522 61.6067 17.593 62.3751 17.0735C63.143 16.5546 63.7344 15.8067 64.1503 14.8301C64.5651 13.8541 64.7733 12.6802 64.7733 11.3095C64.7733 9.25307 64.3164 7.65425 63.4031 6.51153C62.4893 5.3693 61.2126 4.79794 59.573 4.79794C58.4931 4.79794 57.5645 5.05271 56.7857 5.56124C56.0074 6.07027 55.4101 6.80735 54.9953 7.77298C54.5799 8.7386 54.3722 9.91793 54.3722 11.309C54.3722 13.3654 54.8286 14.9696 55.7424 16.1223C56.6552 17.2759 57.9319 17.8522 59.5725 17.8522Z" fill="#0C0A28"/>
<path d="M75.671 22.3072C74.9441 22.3072 74.3473 22.1514 73.8805 21.8398C73.4133 21.5281 73.0968 21.1076 72.9307 20.5778C72.764 20.048 72.764 19.4668 72.9307 18.8331C73.0968 18.1999 73.439 17.5612 73.9582 16.9172L84.7019 3.42713V5.04722H75.2349C74.4254 5.04722 73.8128 4.84489 73.3974 4.43975C72.9821 4.0346 72.7744 3.4484 72.7744 2.67966C72.7744 1.91142 72.9816 1.32967 73.3974 0.934909C73.8123 0.540646 74.4249 0.342773 75.2349 0.342773H87.3799C88.1063 0.342773 88.7036 0.498597 89.1703 0.810248C89.6376 1.1219 89.9536 1.53744 90.1202 2.05636C90.2863 2.57578 90.2863 3.15753 90.1202 3.80111C89.9536 4.44519 89.6114 5.08927 89.0927 5.73285L78.349 19.2229V17.6028H88.3139C89.1026 17.6028 89.7098 17.8007 90.1355 18.1949C90.5608 18.5897 90.7739 19.1715 90.7739 19.9397C90.7739 20.7084 90.5608 21.2951 90.1355 21.6998C89.7098 22.1049 89.1026 22.3072 88.3139 22.3072H75.671Z" fill="#0C0A28"/>
<path d="M95.1348 22.3072C94.408 22.3072 93.8112 22.1514 93.3444 21.8398C92.8771 21.5281 92.5607 21.1076 92.3945 20.5778C92.2279 20.048 92.2279 19.4668 92.3945 18.8331C92.5607 18.1999 92.9028 17.5612 93.422 16.9172L104.166 3.42713V5.04722H94.6987C93.8893 5.04722 93.2767 4.84489 92.8613 4.43975C92.446 4.0346 92.2383 3.4484 92.2383 2.67966C92.2383 1.91142 92.4455 1.32967 92.8613 0.934909C93.2762 0.540646 93.8888 0.342773 94.6987 0.342773H106.844C107.57 0.342773 108.167 0.498597 108.634 0.810248C109.101 1.1219 109.417 1.53744 109.584 2.05636C109.75 2.57578 109.75 3.15753 109.584 3.80111C109.417 4.44519 109.075 5.08927 108.557 5.73285L97.8129 19.2229V17.6028H107.778C108.566 17.6028 109.174 17.8007 109.599 18.1949C110.025 18.5897 110.238 19.1715 110.238 19.9397C110.238 20.7084 110.025 21.2951 109.599 21.6998C109.174 22.1049 108.566 22.3072 107.778 22.3072H95.1348Z" fill="#0C0A28"/>
<path d="M120.608 22.5879C119.694 22.5879 118.988 22.3332 118.49 21.8246C117.991 21.3161 117.742 20.584 117.742 19.6282V11.092L118.926 14.2387L111.763 3.92646C111.41 3.42782 111.26 2.87279 111.312 2.25988C111.363 1.64746 111.612 1.12804 112.059 0.702116C112.505 0.276687 113.144 0.0634766 113.974 0.0634766C114.555 0.0634766 115.085 0.203472 115.563 0.483958C116.04 0.764444 116.486 1.23687 116.902 1.90173L121.261 8.31976H120.14L124.5 1.87056C124.936 1.2062 125.382 0.738724 125.839 0.468626C126.295 0.199023 126.835 0.0634766 127.458 0.0634766C128.247 0.0634766 128.86 0.261349 129.296 0.655612C129.732 1.05037 129.965 1.54901 129.997 2.15104C130.028 2.75357 129.835 3.36599 129.421 3.98929L122.321 14.2392L123.473 11.0925V19.6287C123.473 21.602 122.518 22.5879 120.608 22.5879Z" fill="#0C0A28"/>
</svg>
