<svg width="130" height="112" viewBox="0 0 130 112" fill="none" xmlns="http://www.w3.org/2000/svg">
<g id="Frame" clip-path="url(#clip0_25_9361)">
<g id="Group">
<g id="Clip path group">
<mask id="mask0_25_9361" style="mask-type:luminance" maskUnits="userSpaceOnUse" x="20" y="0" width="89" height="75">
<g id="SVGID_2_">
<path id="Vector" d="M57.8978 0C78.5531 0 95.2976 16.752 95.2976 37.4164C95.2976 40.4904 94.9248 43.4773 94.2256 46.3356H76.5426C77.8356 43.6351 78.56 40.6106 78.56 37.4164C78.56 26.0001 69.3091 16.7451 57.8978 16.7451C46.4861 16.7451 37.2352 26.0001 37.2352 37.4164C37.2352 48.8328 46.4861 58.0878 57.8978 58.0878H89.0738H100.367C104.97 58.0878 108.736 61.8553 108.736 66.4604C108.736 71.0654 104.97 74.8329 100.367 74.8329H57.8978C37.2426 74.8329 20.498 58.0809 20.498 37.4164C20.4976 16.752 37.2421 0 57.8978 0Z" fill="white"/>
</g>
</mask>
<g mask="url(#mask0_25_9361)">
<path id="Vector_2" d="M108.736 0H20.498V74.8329H108.736V0Z" fill="url(#paint0_linear_25_9361)"/>
</g>
</g>
</g>
<g id="Group_2">
<path id="Vector_3" d="M11.1487 110.842C8.92705 110.842 6.9759 110.37 5.29422 109.424C3.61255 108.479 2.30964 107.155 1.38598 105.451C0.461829 103.749 0 101.766 0 99.5014C0 97.7987 0.264538 96.2508 0.794109 94.8593C1.32368 93.4682 2.0812 92.2735 3.06716 91.2763C4.05312 90.2795 5.23143 89.5162 6.60159 88.9864C7.97175 88.4566 9.48678 88.1919 11.1482 88.1919C13.3693 88.1919 15.3155 88.6594 16.9873 89.5938C18.6581 90.5283 19.9615 91.8422 20.8955 93.535C21.8296 95.2278 22.2969 97.2164 22.2969 99.5009C22.2969 101.204 22.0323 102.751 21.5028 104.143C20.9732 105.535 20.2152 106.734 19.2297 107.741C18.2432 108.749 17.0654 109.517 15.6953 110.047C14.3246 110.577 12.8091 110.842 11.1487 110.842ZM11.1487 106.044C12.2489 106.044 13.1829 105.784 13.9513 105.265C14.7192 104.746 15.3106 103.998 15.7264 103.022C16.1413 102.046 16.3494 100.872 16.3494 99.5009C16.3494 97.4445 15.8926 95.8457 14.9793 94.7029C14.0655 93.5607 12.7888 92.9893 11.1492 92.9893C10.0693 92.9893 9.14066 93.2441 8.36188 93.7526C7.58359 94.2617 6.98628 94.9988 6.57142 95.9644C6.15608 96.93 5.9484 98.1093 5.9484 99.5004C5.9484 101.557 6.40479 103.161 7.31856 104.314C8.23134 105.467 9.50805 106.044 11.1487 106.044ZM20.5529 113.272C20.9267 113.895 21.0612 114.461 20.9579 114.97C20.8535 115.478 20.5999 115.909 20.1949 116.263C19.7899 116.615 19.3123 116.844 18.7624 116.948C18.2121 117.052 17.6672 117 17.1277 116.793C16.5878 116.585 16.1413 116.19 15.7887 115.609L13.484 111.901C13.2556 111.527 12.9545 111.257 12.5811 111.091C12.2073 110.924 11.7193 110.842 11.1175 110.842L15.3838 109.253C16.3178 109.253 17.107 109.424 17.7503 109.767C18.3936 110.109 18.9439 110.665 19.4008 111.433L20.5529 113.272Z" fill="white"/>
<path id="Vector_4" d="M35.4066 110.842C33.8075 110.842 32.3963 110.639 31.1715 110.234C29.9463 109.829 28.9138 109.222 28.0732 108.412C27.2327 107.602 26.5987 106.589 26.1735 105.374C25.7478 104.159 25.5352 102.753 25.5352 101.153V91.1523C25.5352 90.197 25.7844 89.4753 26.2823 88.987C26.7807 88.4993 27.4863 88.2549 28.4001 88.2549C29.3341 88.2549 30.0452 88.4993 30.5332 88.987C31.0207 89.4753 31.265 90.197 31.265 91.1523V101.215C31.265 102.815 31.6176 104.019 32.3236 104.829C33.0293 105.64 34.0567 106.044 35.4066 106.044C36.7348 106.044 37.7524 105.639 38.4585 104.829C39.1641 104.019 39.5171 102.815 39.5171 101.215V91.1523C39.5171 90.197 39.7609 89.4753 40.2489 88.987C40.7365 88.4993 41.4371 88.2549 42.3509 88.2549C43.2642 88.2549 43.9594 88.4993 44.4375 88.987C44.9147 89.4753 45.154 90.197 45.154 91.1523V101.153C45.154 103.292 44.7851 105.084 44.0484 106.527C43.3111 107.971 42.2159 109.05 40.7632 109.767C39.3094 110.484 37.5239 110.842 35.4066 110.842Z" fill="white"/>
<path id="Vector_5" d="M59.5725 110.842C57.3509 110.842 55.3997 110.37 53.7181 109.424C52.0364 108.479 50.7335 107.155 49.8098 105.451C48.8857 103.749 48.4238 101.765 48.4238 99.5009C48.4238 97.7982 48.6884 96.2503 49.2179 94.8588C49.7475 93.4677 50.505 92.2731 51.491 91.2758C52.4769 90.279 53.6553 89.5157 55.0254 88.9859C56.3956 88.4561 57.9106 88.1914 59.572 88.1914C61.7931 88.1914 63.7394 88.6589 65.4111 89.5933C67.0819 90.5278 68.3848 91.8417 69.3194 93.5345C70.2534 95.2273 70.7207 97.2159 70.7207 99.5004C70.7207 101.204 70.4562 102.751 69.9266 104.143C69.397 105.534 68.639 106.734 67.6535 107.741C66.6671 108.749 65.4893 109.517 64.1191 110.046C62.7489 110.577 61.2329 110.842 59.5725 110.842ZM59.5725 106.044C60.6727 106.044 61.6067 105.784 62.3751 105.265C63.143 104.746 63.7344 103.998 64.1503 103.022C64.5651 102.046 64.7733 100.872 64.7733 99.5009C64.7733 97.4445 64.3164 95.8457 63.4031 94.7029C62.4893 93.5607 61.2126 92.9893 59.573 92.9893C58.4931 92.9893 57.5645 93.2441 56.7857 93.7526C56.0074 94.2617 55.4101 94.9988 54.9953 95.9644C54.5799 96.93 54.3722 98.1093 54.3722 99.5004C54.3722 101.557 54.8286 103.161 55.7424 104.314C56.6552 105.467 57.9319 106.044 59.5725 106.044Z" fill="white"/>
<path id="Vector_6" d="M75.671 110.499C74.9441 110.499 74.3473 110.343 73.8805 110.031C73.4133 109.72 73.0968 109.299 72.9307 108.769C72.764 108.239 72.764 107.658 72.9307 107.024C73.0968 106.391 73.439 105.753 73.9582 105.109L84.7019 91.6185V93.2386H75.2349C74.4254 93.2386 73.8128 93.0363 73.3974 92.6312C72.9821 92.226 72.7744 91.6398 72.7744 90.8711C72.7744 90.1028 72.9816 89.5211 73.3974 89.1263C73.8123 88.7321 74.4249 88.5342 75.2349 88.5342H87.3799C88.1063 88.5342 88.7036 88.69 89.1703 89.0017C89.6376 89.3133 89.9536 89.7288 90.1202 90.2478C90.2863 90.7672 90.2863 91.3489 90.1202 91.9925C89.9536 92.6366 89.6114 93.2807 89.0927 93.9243L78.349 107.414V105.794H88.3139C89.1026 105.794 89.7098 105.992 90.1355 106.386C90.5608 106.781 90.7739 107.363 90.7739 108.131C90.7739 108.9 90.5608 109.487 90.1355 109.891C89.7098 110.296 89.1026 110.499 88.3139 110.499H75.671Z" fill="white"/>
<path id="Vector_7" d="M95.1348 110.499C94.408 110.499 93.8112 110.343 93.3444 110.031C92.8771 109.72 92.5607 109.299 92.3945 108.769C92.2279 108.239 92.2279 107.658 92.3945 107.024C92.5607 106.391 92.9028 105.753 93.422 105.109L104.166 91.6185V93.2386H94.6987C93.8893 93.2386 93.2767 93.0363 92.8613 92.6312C92.446 92.226 92.2383 91.6398 92.2383 90.8711C92.2383 90.1028 92.4455 89.5211 92.8613 89.1263C93.2762 88.7321 93.8888 88.5342 94.6987 88.5342H106.844C107.57 88.5342 108.167 88.69 108.634 89.0017C109.101 89.3133 109.417 89.7288 109.584 90.2478C109.75 90.7672 109.75 91.3489 109.584 91.9925C109.417 92.6366 109.075 93.2807 108.557 93.9243L97.8129 107.414V105.794H107.778C108.566 105.794 109.174 105.992 109.599 106.386C110.025 106.781 110.238 107.363 110.238 108.131C110.238 108.9 110.025 109.487 109.599 109.891C109.174 110.296 108.566 110.499 107.778 110.499H95.1348Z" fill="white"/>
<path id="Vector_8" d="M120.608 110.779C119.694 110.779 118.988 110.525 118.49 110.016C117.991 109.508 117.742 108.775 117.742 107.82V99.2834L118.926 102.43L111.763 92.1179C111.41 91.6192 111.26 91.0642 111.312 90.4513C111.363 89.8389 111.612 89.3194 112.059 88.8935C112.505 88.4681 113.144 88.2549 113.974 88.2549C114.555 88.2549 115.085 88.3949 115.563 88.6754C116.04 88.9559 116.486 89.4283 116.902 90.0931L121.261 96.5112H120.14L124.5 90.062C124.936 89.3976 125.382 88.9301 125.839 88.66C126.295 88.3904 126.835 88.2549 127.458 88.2549C128.247 88.2549 128.86 88.4528 129.296 88.847C129.732 89.2418 129.965 89.7404 129.997 90.3424C130.028 90.945 129.835 91.5574 129.421 92.1807L122.321 102.431L123.473 99.2839V107.82C123.473 109.793 122.518 110.779 120.608 110.779Z" fill="white"/>
</g>
</g>
<defs>
<linearGradient id="paint0_linear_25_9361" x1="123.874" y1="93.3528" x2="16.1126" y2="-8.27927" gradientUnits="userSpaceOnUse">
<stop stop-color="#01DBC4"/>
<stop offset="1" stop-color="#FFFF00"/>
</linearGradient>
<clipPath id="clip0_25_9361">
<rect width="130" height="112" fill="white"/>
</clipPath>
</defs>
</svg>
