<svg width="20" height="20" viewBox="0 0 20 20" fill="none" xmlns="http://www.w3.org/2000/svg">
<path d="M10 20C15.5228 20 20 15.5228 20 10C20 4.47715 15.5228 0 10 0C4.47715 0 0 4.47715 0 10C0 15.5228 4.47715 20 10 20Z" fill="#E2F3EB"/>
<path d="M10.2196 18.4393C14.7592 18.4393 18.4393 14.7592 18.4393 10.2196C18.4393 5.68006 14.7592 2 10.2196 2C5.68006 2 2 5.68006 2 10.2196C2 14.7592 5.68006 18.4393 10.2196 18.4393Z" fill="#009F5F"/>
<path d="M8.98077 14C8.75723 14 8.54314 13.9158 8.39265 13.7673L6.20354 11.6077C5.91086 11.3188 5.9369 10.8739 6.26184 10.6137C6.58656 10.3535 7.08734 10.3767 7.38002 10.6655L8.90518 12.1702L13.5611 6.29841C13.813 5.98067 14.3071 5.90467 14.6643 6.12858C15.0217 6.35249 15.1072 6.7915 14.8554 7.10923L9.6279 13.7017C9.48916 13.8767 9.26838 13.9861 9.02802 13.9988C9.01235 13.9996 8.99644 14 8.98077 14Z" fill="white"/>
</svg>
