<svg width="55" height="28" viewBox="0 0 55 28" fill="none" xmlns="http://www.w3.org/2000/svg">
<rect width="55" height="28" rx="14" fill="#0C0A28"/>
<g filter="url(#filter0_dd_49_5594)">
<path d="M23 14C23 18.9706 18.9706 23 14 23C9.02944 23 5 18.9706 5 14C5 9.02944 9.02944 5 14 5C18.9706 5 23 9.02944 23 14Z" fill="white"/>
</g>
<path fill-rule="evenodd" clip-rule="evenodd" d="M10.2119 9.17457C7.54619 11.4694 7.24792 15.4881 9.54599 18.1505C11.8437 20.8129 15.8675 21.1108 18.5332 18.8156C19.1377 18.2955 19.62 17.6866 19.9781 17.0251C20.0154 16.9562 20.0043 16.875 19.9504 16.8183C19.896 16.7617 19.8151 16.7474 19.7445 16.7815C17.4294 17.9073 14.559 17.3891 12.7987 15.3499C11.0385 13.3102 10.9485 10.3982 12.4045 8.27773C12.4489 8.21316 12.4465 8.13116 12.3985 8.06897C12.3506 8.00717 12.2716 7.98419 12.1979 8.01113C11.4903 8.26743 10.816 8.65445 10.2119 9.17457Z" fill="white"/>
<path fill-rule="evenodd" clip-rule="evenodd" d="M17.5532 8.23217L18.1414 9.62972C18.1675 9.69191 18.2227 9.73192 18.2901 9.73747L19.8028 9.86423C19.8754 9.87017 19.9341 9.91652 19.9567 9.98584C19.9793 10.0552 19.9591 10.1269 19.904 10.1744L18.7545 11.1655C18.7034 11.2099 18.6824 11.2741 18.6978 11.3398L19.0445 12.8158C19.0611 12.8867 19.035 12.9568 18.9763 12.9996C18.9172 13.0424 18.8426 13.0456 18.7803 13.0079L17.4818 12.2224C17.4239 12.1875 17.356 12.1875 17.2981 12.2224L15.9996 13.0079C15.9373 13.0456 15.8623 13.0424 15.8036 12.9996C15.7445 12.9568 15.7187 12.8867 15.7354 12.8158L16.0821 11.3398C16.0975 11.2741 16.0765 11.2095 16.0253 11.1655L14.8763 10.1748C14.8212 10.1273 14.8009 10.0552 14.8236 9.98624C14.8462 9.91692 14.9045 9.87057 14.9774 9.86463L16.4902 9.73786C16.5576 9.73232 16.6124 9.69231 16.6389 9.63012L17.2271 8.23257C17.2553 8.16562 17.3176 8.12403 17.3905 8.12403C17.4627 8.12363 17.525 8.16483 17.5532 8.23217Z" fill="white"/>
<path fill-rule="evenodd" clip-rule="evenodd" d="M37.2119 9.17457C34.5462 11.4694 34.2479 15.4881 36.546 18.1505C38.8437 20.8129 42.8675 21.1108 45.5332 18.8156C46.1377 18.2955 46.62 17.6866 46.9781 17.0251C47.0154 16.9562 47.0043 16.875 46.9504 16.8183C46.896 16.7617 46.8151 16.7474 46.7445 16.7815C44.4294 17.9073 41.559 17.3891 39.7987 15.3499C38.0385 13.3102 37.9485 10.3982 39.4045 8.27773C39.4489 8.21316 39.4465 8.13116 39.3985 8.06897C39.3506 8.00717 39.2716 7.98419 39.1979 8.01113C38.4903 8.26743 37.816 8.65445 37.2119 9.17457Z" fill="white"/>
<path fill-rule="evenodd" clip-rule="evenodd" d="M44.5532 8.23217L45.1414 9.62972C45.1675 9.69191 45.2227 9.73192 45.2901 9.73747L46.8028 9.86423C46.8754 9.87017 46.9341 9.91652 46.9567 9.98584C46.9793 10.0552 46.9591 10.1269 46.904 10.1744L45.7545 11.1655C45.7034 11.2099 45.6824 11.2741 45.6978 11.3398L46.0445 12.8158C46.0611 12.8867 46.035 12.9568 45.9763 12.9996C45.9172 13.0424 45.8426 13.0456 45.7803 13.0079L44.4818 12.2224C44.4239 12.1875 44.356 12.1875 44.2981 12.2224L42.9996 13.0079C42.9373 13.0456 42.8623 13.0424 42.8036 12.9996C42.7445 12.9568 42.7187 12.8867 42.7354 12.8158L43.0821 11.3398C43.0975 11.2741 43.0765 11.2095 43.0253 11.1655L41.8763 10.1748C41.8212 10.1273 41.8009 10.0552 41.8236 9.98624C41.8462 9.91692 41.9045 9.87057 41.9774 9.86463L43.4902 9.73786C43.5576 9.73232 43.6124 9.69231 43.6389 9.63012L44.2271 8.23257C44.2553 8.16562 44.3176 8.12403 44.3905 8.12403C44.4627 8.12363 44.525 8.16483 44.5532 8.23217Z" fill="white"/>
<defs>
<filter id="filter0_dd_49_5594" x="2" y="3" width="24" height="24" filterUnits="userSpaceOnUse" color-interpolation-filters="sRGB">
<feFlood flood-opacity="0" result="BackgroundImageFix"/>
<feColorMatrix in="SourceAlpha" type="matrix" values="0 0 0 0 0 0 0 0 0 0 0 0 0 0 0 0 0 0 127 0" result="hardAlpha"/>
<feOffset dy="1"/>
<feGaussianBlur stdDeviation="1"/>
<feColorMatrix type="matrix" values="0 0 0 0 0.0627451 0 0 0 0 0.0941176 0 0 0 0 0.156863 0 0 0 0.06 0"/>
<feBlend mode="normal" in2="BackgroundImageFix" result="effect1_dropShadow_49_5594"/>
<feColorMatrix in="SourceAlpha" type="matrix" values="0 0 0 0 0 0 0 0 0 0 0 0 0 0 0 0 0 0 127 0" result="hardAlpha"/>
<feOffset dy="1"/>
<feGaussianBlur stdDeviation="1.5"/>
<feColorMatrix type="matrix" values="0 0 0 0 0.0627451 0 0 0 0 0.0941176 0 0 0 0 0.156863 0 0 0 0.1 0"/>
<feBlend mode="normal" in2="effect1_dropShadow_49_5594" result="effect2_dropShadow_49_5594"/>
<feBlend mode="normal" in="SourceGraphic" in2="effect2_dropShadow_49_5594" result="shape"/>
</filter>
</defs>
</svg>
