<svg width="55" height="28" viewBox="0 0 55 28" fill="none" xmlns="http://www.w3.org/2000/svg">
<rect width="55" height="28" rx="14" fill="white"/>
<g filter="url(#filter0_dd_49_5595)">
<path d="M50 14C50 18.9706 45.9706 23 41 23C36.0294 23 32 18.9706 32 14C32 9.02944 36.0294 5 41 5C45.9706 5 50 9.02944 50 14Z" fill="#0C0A28"/>
</g>
<path d="M14 10.5888C12.1161 10.5888 10.5888 12.1161 10.5888 14C10.5888 15.8839 12.1161 17.4112 14 17.4112C15.8839 17.4112 17.4112 15.8839 17.4112 14C17.4112 12.1161 15.8839 10.5888 14 10.5888ZM14 16.5362C12.6018 16.5362 11.4638 15.3987 11.4638 14C11.4638 12.6018 12.6013 11.4638 14 11.4638C15.3983 11.4638 16.5362 12.6013 16.5362 14C16.5362 15.3983 15.3983 16.5362 14 16.5362ZM14 9.77813C14.2415 9.77813 14.4375 9.58213 14.4375 9.34063V7.4375C14.4375 7.196 14.2415 7 14 7C13.7585 7 13.5625 7.196 13.5625 7.4375V9.34063C13.5625 9.58213 13.7585 9.77813 14 9.77813ZM14 18.2219C13.7585 18.2219 13.5625 18.4174 13.5625 18.6594V20.5625C13.5625 20.804 13.7585 21 14 21C14.2415 21 14.4375 20.804 14.4375 20.5625V18.6594C14.4375 18.4174 14.2415 18.2219 14 18.2219ZM20.5625 13.5625H18.6594C18.4179 13.5625 18.2219 13.7585 18.2219 14C18.2219 14.2415 18.4174 14.4375 18.6594 14.4375H20.5625C20.804 14.4375 21 14.2415 21 14C21 13.7585 20.804 13.5625 20.5625 13.5625ZM9.77813 14C9.77813 13.7585 9.58213 13.5625 9.34063 13.5625H7.4375C7.196 13.5625 7 13.7585 7 14C7 14.2415 7.196 14.4375 7.4375 14.4375H9.34063C9.58213 14.4375 9.77813 14.2415 9.77813 14ZM17.2944 11.1427C17.4064 11.1427 17.5184 11.0998 17.6037 11.0145L18.9499 9.66875C19.1209 9.49813 19.1209 9.22075 18.9499 9.05013C18.7788 8.8795 18.5019 8.8795 18.3313 9.05013L16.9855 10.3959C16.8144 10.5665 16.8144 10.8439 16.9855 11.0145C17.0708 11.1003 17.1828 11.1427 17.2944 11.1427ZM10.3959 16.9851L9.05013 18.3308C8.8795 18.5019 8.8795 18.7788 9.05013 18.9494C9.13544 19.0348 9.24744 19.0776 9.35944 19.0776C9.47144 19.0776 9.58344 19.0348 9.66875 18.9494L11.0145 17.6037C11.1856 17.4326 11.1856 17.1557 11.0145 16.9851C10.8439 16.8144 10.5669 16.8144 10.3959 16.9851ZM17.6041 16.9851C17.4331 16.814 17.1561 16.814 16.9855 16.9851C16.8144 17.1557 16.8144 17.4331 16.9855 17.6037L18.3313 18.9494C18.4166 19.0348 18.5286 19.0776 18.6406 19.0776C18.7526 19.0776 18.8646 19.0348 18.9499 18.9494C19.1209 18.7784 19.1209 18.5014 18.9499 18.3308L17.6041 16.9851ZM10.3959 11.0149C10.4812 11.1003 10.5932 11.1431 10.7052 11.1431C10.8172 11.1431 10.9292 11.1003 11.0145 11.0149C11.1851 10.8439 11.1851 10.5669 11.0145 10.3963L9.66919 9.05013C9.49813 8.87906 9.22119 8.87906 9.05056 9.05013C8.8795 9.22075 8.8795 9.49813 9.05056 9.66875L10.3959 11.0149Z" fill="#0C0A28"/>
<defs>
<filter id="filter0_dd_49_5595" x="29" y="3" width="24" height="24" filterUnits="userSpaceOnUse" color-interpolation-filters="sRGB">
<feFlood flood-opacity="0" result="BackgroundImageFix"/>
<feColorMatrix in="SourceAlpha" type="matrix" values="0 0 0 0 0 0 0 0 0 0 0 0 0 0 0 0 0 0 127 0" result="hardAlpha"/>
<feOffset dy="1"/>
<feGaussianBlur stdDeviation="1"/>
<feColorMatrix type="matrix" values="0 0 0 0 0.0627451 0 0 0 0 0.0941176 0 0 0 0 0.156863 0 0 0 0.06 0"/>
<feBlend mode="normal" in2="BackgroundImageFix" result="effect1_dropShadow_49_5595"/>
<feColorMatrix in="SourceAlpha" type="matrix" values="0 0 0 0 0 0 0 0 0 0 0 0 0 0 0 0 0 0 127 0" result="hardAlpha"/>
<feOffset dy="1"/>
<feGaussianBlur stdDeviation="1.5"/>
<feColorMatrix type="matrix" values="0 0 0 0 0.0627451 0 0 0 0 0.0941176 0 0 0 0 0.156863 0 0 0 0.1 0"/>
<feBlend mode="normal" in2="effect1_dropShadow_49_5595" result="effect2_dropShadow_49_5595"/>
<feBlend mode="normal" in="SourceGraphic" in2="effect2_dropShadow_49_5595" result="shape"/>
</filter>
</defs>
</svg>
